<svg width="24" height="24" viewBox="0 0 24 24" fill="none" xmlns="http://www.w3.org/2000/svg">
  <path d="M13.7507 7.75004C13.8514 7.75344 13.9504 7.77734 14.0415 7.82034C14.1326 7.86334 14.214 7.92444 14.2807 8.00004C14.4211 8.14064 14.5 8.33124 14.5 8.53004C14.5 8.72874 14.4211 8.91944 14.2807 9.06004L11.2807 12.06L14.2807 15.06C14.34 15.204 14.353 15.363 14.3179 15.5147C14.2828 15.6664 14.2013 15.8035 14.0848 15.9068C13.9683 16.0102 13.8225 16.0747 13.6677 16.0914C13.5128 16.1081 13.3566 16.0762 13.2207 16L9.72066 12.5C9.58026 12.3594 9.50136 12.1687 9.50136 11.97C9.50136 11.7712 9.58026 11.5806 9.72066 11.44L13.2207 8.00004C13.2874 7.92444 13.3688 7.86334 13.4599 7.82034C13.551 7.77734 13.65 7.75344 13.7507 7.75004Z" fill="white"/>
</svg>
