<svg width="124" height="24" viewBox="0 0 124 24" fill="none" xmlns="http://www.w3.org/2000/svg">
<path d="M3.993 8.24439V14.5914C3.993 15.1304 4.015 15.4384 4.081 15.8344H3.047C3.113 15.4934 3.135 15.1084 3.135 14.5914V8.24439H1.419C0.858 8.24439 0.517 8.26639 0.154 8.32139V7.39739C0.539 7.45239 0.825 7.47439 1.408 7.47439H5.698C6.336 7.47439 6.633 7.45239 6.996 7.39739V8.32139C6.633 8.26639 6.314 8.24439 5.698 8.24439H3.993ZM13.8206 7.47439H14.8546C14.7886 7.89239 14.7666 8.16739 14.7666 8.68439V14.6024C14.7666 15.1414 14.7886 15.4054 14.8546 15.8344H13.8206C13.8866 15.4274 13.9086 15.1304 13.9086 14.6024V11.8194H8.93655V14.6024C8.93655 15.1524 8.95855 15.4384 9.02455 15.8344H7.99055C8.05655 15.4604 8.07855 15.1414 8.07855 14.6024V8.70639C8.07855 8.17839 8.05655 7.85939 7.99055 7.47439H9.02455C8.95855 7.88139 8.93655 8.16739 8.93655 8.68439V11.0384H13.9086V8.70639C13.9086 8.18939 13.8866 7.84839 13.8206 7.47439ZM22.2171 14.9874V15.9114C21.8651 15.8564 21.5681 15.8344 20.9851 15.8344H17.7621C17.2341 15.8344 16.9261 15.8454 16.5521 15.8674C16.6181 15.4494 16.6401 15.1194 16.6401 14.5584V8.69539C16.6401 8.22239 16.6181 7.92539 16.5521 7.44139C16.9371 7.46339 17.2341 7.47439 17.7621 7.47439H20.8971C21.3811 7.47439 21.7551 7.45239 22.1291 7.39739V8.32139C21.7441 8.26639 21.4471 8.24439 20.8971 8.24439H17.5091V11.0604H20.4021C20.8861 11.0604 21.2161 11.0384 21.6341 10.9834V11.9074C21.2601 11.8524 20.9741 11.8304 20.4021 11.8304H17.5091V15.0644H20.9961C21.5021 15.0644 21.8101 15.0424 22.2171 14.9874Z" fill="white"/>
<path fill-rule="evenodd" clip-rule="evenodd" d="M42.4078 13.0757L41.8008 24L41.1938 13.0725L36.7461 17.052L40.7232 12.607L29.7998 12.0001L40.7251 11.3932L36.7471 6.94724L41.1939 10.9259L41.8008 0L42.4077 10.9227L46.8514 6.94673L42.8731 11.3931L53.7998 12.0001L42.8749 12.6071L46.8524 17.0525L42.4078 13.0757Z" fill="white"/>
<path d="M64.667 9.59739L63.787 9.85039C63.622 9.37739 63.501 9.14639 63.27 8.88239C62.83 8.36539 62.17 8.09039 61.367 8.09039C59.585 8.09039 58.463 9.45439 58.463 11.6434C58.463 13.8214 59.596 15.2074 61.367 15.2074C62.236 15.2074 62.973 14.8774 63.424 14.2834C63.655 13.9644 63.765 13.6894 63.864 13.1834L64.777 13.4034C64.59 14.0524 64.447 14.3604 64.183 14.7124C63.567 15.5374 62.566 15.9884 61.334 15.9884C60.278 15.9884 59.387 15.6584 58.76 15.0204C57.99 14.2504 57.572 13.0514 57.572 11.6764C57.572 10.2574 58.012 9.05839 58.826 8.25539C59.464 7.63939 60.3 7.32039 61.345 7.32039C62.379 7.32039 63.215 7.61739 63.809 8.21139C64.194 8.58539 64.403 8.91539 64.667 9.59739ZM69.6925 7.30939C72.0135 7.30939 73.4875 9.00339 73.4875 11.6544C73.4875 14.3054 72.0025 15.9994 69.6815 15.9994C67.3605 15.9994 65.8865 14.3054 65.8865 11.6544C65.8865 9.01439 67.3825 7.30939 69.6925 7.30939ZM69.7035 15.2184C70.4625 15.2184 71.1115 14.9654 71.6065 14.4704C72.2335 13.8544 72.5855 12.8314 72.5855 11.6544C72.5855 10.4444 72.2555 9.47639 71.6175 8.83839C71.1115 8.34339 70.4515 8.07939 69.6925 8.07939C67.9325 8.07939 66.7775 9.48739 66.7775 11.6434C66.7775 13.7994 67.9435 15.2184 69.7035 15.2184ZM78.4476 14.6794L76.2366 9.77339C76.0716 9.42139 75.9506 9.08039 75.7416 8.40939C75.7746 8.88239 75.8186 9.56439 75.8186 9.82839V14.5364C75.8186 15.1194 75.8406 15.4604 75.9066 15.8344H74.9056C74.9716 15.4274 74.9936 15.1084 74.9936 14.5364V8.78339C74.9936 8.23339 74.9716 7.88139 74.9056 7.47439H76.1816C76.2476 7.80439 76.3796 8.20039 76.5446 8.56339L79.2616 14.6244L81.9676 8.56339C82.1546 8.13439 82.2756 7.79339 82.3416 7.47439H83.6066C83.5406 7.89239 83.5186 8.21139 83.5186 8.78339V14.5364C83.5186 15.1414 83.5406 15.4384 83.6066 15.8344H82.6056C82.6716 15.4604 82.6936 15.0644 82.6936 14.5364V9.76239C82.6936 9.45439 82.7266 8.86039 82.7706 8.40939C82.6606 8.86039 82.5066 9.30039 82.2976 9.75139L80.0536 14.6904C79.8336 15.1854 79.7236 15.4714 79.6356 15.8344H78.8546C78.7996 15.5484 78.6676 15.1744 78.4476 14.6794ZM86.338 15.8344H85.304C85.37 15.4384 85.392 15.1194 85.392 14.6024V8.69539C85.392 8.24439 85.37 7.90339 85.304 7.44139C85.7 7.46339 86.008 7.47439 86.514 7.47439H88.758C90.452 7.47439 91.409 8.34339 91.409 9.87239C91.409 11.4894 90.419 12.4244 88.703 12.4244H86.25V14.5914C86.25 15.1194 86.272 15.4604 86.338 15.8344ZM86.25 11.6654H88.703C89.869 11.6654 90.529 11.0384 90.529 9.91639C90.529 8.81639 89.891 8.23339 88.703 8.23339H86.25V11.6654ZM99.1762 15.8344H98.0432C97.9552 15.4384 97.8342 15.0534 97.7022 14.7124L97.1302 13.2934H93.2912L92.7192 14.7124C92.5542 15.1304 92.4552 15.4494 92.3782 15.8344H91.2342C91.4542 15.4714 91.5312 15.3064 91.8282 14.5694L94.2922 8.49739C94.5012 7.98039 94.5892 7.72739 94.6442 7.47439H95.7552C95.7992 7.68339 95.8542 7.82639 96.1292 8.49739L98.5932 14.5694C98.8682 15.2294 99.0112 15.5484 99.1762 15.8344ZM96.8662 12.5344L95.4472 8.90439C95.4142 8.81639 95.4142 8.80539 95.2052 8.20039C95.1502 8.36539 95.1062 8.48639 95.0842 8.56339C95.0182 8.73939 94.9852 8.86039 94.9632 8.90439L93.5552 12.5344H96.8662ZM106.04 9.50939L105.116 9.64139C105.028 9.20139 104.94 8.98139 104.731 8.72839C104.379 8.31039 103.818 8.09039 103.103 8.09039C101.97 8.09039 101.178 8.69539 101.178 9.58639C101.178 10.1584 101.486 10.5654 102.135 10.8294C102.432 10.9504 102.443 10.9504 103.708 11.2254C105.468 11.5994 106.172 12.2704 106.172 13.5464C106.172 15.0974 105.105 15.9774 103.213 15.9774C101.981 15.9774 101.068 15.6144 100.562 14.9324C100.276 14.5474 100.155 14.2064 100.045 13.4804L101.002 13.3594C101.035 13.8874 101.112 14.1514 101.343 14.4484C101.706 14.9324 102.366 15.2074 103.18 15.2074C104.489 15.2074 105.281 14.5914 105.281 13.5684C105.281 13.0294 105.061 12.6224 104.643 12.3914C104.28 12.1824 104.159 12.1494 102.828 11.8524C102.135 11.7094 101.706 11.5554 101.332 11.3464C100.65 10.9614 100.309 10.3784 100.309 9.60839C100.309 8.22239 101.42 7.33139 103.125 7.33139C104.214 7.33139 105.061 7.68339 105.556 8.34339C105.809 8.67339 105.919 8.94839 106.04 9.50939ZM113.399 9.50939L112.475 9.64139C112.387 9.20139 112.299 8.98139 112.09 8.72839C111.738 8.31039 111.177 8.09039 110.462 8.09039C109.329 8.09039 108.537 8.69539 108.537 9.58639C108.537 10.1584 108.845 10.5654 109.494 10.8294C109.791 10.9504 109.802 10.9504 111.067 11.2254C112.827 11.5994 113.531 12.2704 113.531 13.5464C113.531 15.0974 112.464 15.9774 110.572 15.9774C109.34 15.9774 108.427 15.6144 107.921 14.9324C107.635 14.5474 107.514 14.2064 107.404 13.4804L108.361 13.3594C108.394 13.8874 108.471 14.1514 108.702 14.4484C109.065 14.9324 109.725 15.2074 110.539 15.2074C111.848 15.2074 112.64 14.5914 112.64 13.5684C112.64 13.0294 112.42 12.6224 112.002 12.3914C111.639 12.1824 111.518 12.1494 110.187 11.8524C109.494 11.7094 109.065 11.5554 108.691 11.3464C108.009 10.9614 107.668 10.3784 107.668 9.60839C107.668 8.22239 108.779 7.33139 110.484 7.33139C111.573 7.33139 112.42 7.68339 112.915 8.34339C113.168 8.67339 113.278 8.94839 113.399 9.50939Z" fill="white"/>
</svg>
