<svg width="18" height="18" viewBox="0 0 18 18" fill="none" xmlns="http://www.w3.org/2000/svg">
  <path fill-rule="evenodd" clip-rule="evenodd" d="M9 18C7.21997 18 5.47991 17.4722 3.99987 16.4832C2.51983 15.4943 1.36628 14.0887 0.685088 12.4442C0.00389952 10.7996 -0.17433 8.99002 0.172937 7.24419C0.520203 5.49836 1.37737 3.89472 2.63604 2.63604C3.89472 1.37737 5.49836 0.520203 7.24419 0.172937C8.99002 -0.17433 10.7996 0.00389952 12.4442 0.685088C14.0887 1.36628 15.4943 2.51983 16.4832 3.99987C17.4722 5.47991 18 7.21997 18 9C18 11.387 17.0518 13.6761 15.364 15.364C13.6761 17.0518 11.387 18 9 18ZM9 1.5C7.51664 1.5 6.0666 1.93987 4.83323 2.76398C3.59986 3.58809 2.63856 4.75943 2.07091 6.12988C1.50325 7.50032 1.35473 9.00832 1.64411 10.4632C1.9335 11.918 2.64781 13.2544 3.6967 14.3033C4.7456 15.3522 6.08197 16.0665 7.53683 16.3559C8.99168 16.6453 10.4997 16.4968 11.8701 15.9291C13.2406 15.3614 14.4119 14.4001 15.236 13.1668C16.0601 11.9334 16.5 10.4834 16.5 9C16.5 7.01088 15.7098 5.10323 14.3033 3.6967C12.8968 2.29018 10.9891 1.5 9 1.5ZM9 10C8.80189 9.99741 8.61263 9.91756 8.47253 9.77747C8.33244 9.63737 8.25259 9.44811 8.25 9.25V5.75C8.25 5.55109 8.32902 5.36032 8.46967 5.21967C8.61032 5.07902 8.80109 5 9 5C9.19891 5 9.38968 5.07902 9.53033 5.21967C9.67098 5.36032 9.75 5.55109 9.75 5.75V9.25C9.74741 9.44811 9.66756 9.63737 9.52747 9.77747C9.38737 9.91756 9.19811 9.99741 9 10ZM8.47253 12.7775C8.61263 12.9176 8.80189 12.9974 9 13C9.19811 12.9974 9.38737 12.9176 9.52747 12.7775C9.66756 12.6374 9.74741 12.4481 9.75 12.25V11.75C9.75 11.5511 9.67098 11.3603 9.53033 11.2197C9.38968 11.079 9.19891 11 9 11C8.80109 11 8.61032 11.079 8.46967 11.2197C8.32902 11.3603 8.25 11.5511 8.25 11.75V12.25C8.25259 12.4481 8.33244 12.6374 8.47253 12.7775Z" fill="#292E33"/>
</svg>
